<?xml version="1.0" encoding="utf-8"?>
<!-- Generator: Adobe Illustrator 23.0.1, SVG Export Plug-In . SVG Version: 6.00 Build 0)  -->
<svg version="1.1" id="Layer_1" xmlns="http://www.w3.org/2000/svg" xmlns:xlink="http://www.w3.org/1999/xlink" x="0px" y="0px"
	 viewBox="0 0 133.57 95.81" style="enable-background:new 0 0 133.57 95.81;" xml:space="preserve">
<style type="text/css">
	.st0{fill:#FFFFFF;}
	.st1{fill:#231F20;}
</style>
<g>
	<g>
		<g>
			<polygon class="st0" points="52.94,21.12 58.63,26.49 33.93,21.16 28.23,15.79 			"/>
			<path class="st1" d="M58.63,27.36c-0.06,0-0.12-0.01-0.18-0.02l-24.71-5.33c-0.15-0.03-0.3-0.11-0.41-0.22l-5.69-5.36
				c-0.28-0.27-0.36-0.69-0.17-1.04s0.57-0.53,0.95-0.45l24.71,5.33c0.15,0.03,0.3,0.11,0.41,0.22l5.69,5.36
				c0.28,0.27,0.36,0.69,0.17,1.04C59.25,27.18,58.95,27.36,58.63,27.36z M34.35,20.36l21.41,4.62l-3.24-3.05L31.1,17.3L34.35,20.36
				z"/>
		</g>
	</g>
	<g>
		<g>
			<polygon class="st0" points="79.18,12.51 84.87,17.87 34.59,65.41 28.9,60.05 			"/>
			<path class="st1" d="M34.59,66.28c-0.21,0-0.43-0.08-0.6-0.24l-5.69-5.36c-0.17-0.16-0.27-0.39-0.27-0.63
				c0-0.24,0.1-0.47,0.27-0.63l50.28-47.54c0.34-0.32,0.86-0.32,1.19,0l5.69,5.36c0.17,0.16,0.27,0.39,0.27,0.63
				c0,0.24-0.1,0.47-0.27,0.63L35.19,66.04C35.02,66.2,34.81,66.28,34.59,66.28z M30.17,60.05l4.42,4.17L83.6,17.87l-4.42-4.17
				L30.17,60.05z"/>
		</g>
	</g>
	<g>
		<g>
			<polygon class="st0" points="90.97,14.61 96.66,19.97 80.38,53.24 74.69,47.87 			"/>
			<path class="st1" d="M80.38,54.11c-0.22,0-0.43-0.08-0.6-0.24l-5.69-5.36c-0.28-0.26-0.35-0.67-0.18-1.02l16.28-33.27
				c0.12-0.25,0.35-0.42,0.63-0.47c0.27-0.05,0.55,0.03,0.75,0.22l5.69,5.36c0.28,0.26,0.35,0.67,0.18,1.02L81.16,53.62
				c-0.12,0.25-0.35,0.42-0.63,0.47C80.49,54.1,80.43,54.11,80.38,54.11z M75.75,47.68l4.37,4.11l15.48-31.63l-4.37-4.11
				L75.75,47.68z"/>
		</g>
	</g>
	<g>
		<g>
			<polygon class="st0" points="80.42,56.14 86.11,61.5 70.62,73.19 64.93,67.82 			"/>
			<path class="st1" d="M70.62,74.06c-0.22,0-0.43-0.08-0.6-0.24l-5.69-5.36c-0.19-0.18-0.29-0.43-0.27-0.68
				c0.01-0.26,0.14-0.49,0.34-0.65l15.49-11.68c0.34-0.26,0.81-0.23,1.12,0.06l5.69,5.36c0.19,0.18,0.29,0.43,0.27,0.68
				c-0.01,0.26-0.14,0.49-0.34,0.65L71.14,73.88C70.99,74,70.8,74.06,70.62,74.06z M66.27,67.9l4.41,4.15l14.08-10.62l-4.41-4.15
				L66.27,67.9z"/>
		</g>
	</g>
	<g>
		<g>
			<polygon class="st0" points="64.93,67.82 70.62,73.19 64.1,86.5 58.41,81.14 			"/>
			<path class="st1" d="M64.1,87.38c-0.22,0-0.43-0.08-0.6-0.24l-5.69-5.36c-0.28-0.26-0.35-0.67-0.18-1.02l6.52-13.32
				c0.12-0.25,0.35-0.42,0.63-0.47c0.27-0.05,0.55,0.03,0.75,0.22l5.69,5.36c0.28,0.26,0.35,0.67,0.18,1.02l-6.52,13.32
				c-0.12,0.25-0.35,0.42-0.63,0.47C64.21,87.37,64.15,87.38,64.1,87.38z M59.47,80.95l4.37,4.11l5.72-11.68l-4.37-4.11L59.47,80.95
				z"/>
		</g>
	</g>
	<g>
		<g>
			<polygon class="st0" points="58.41,81.14 64.1,86.5 7.89,74.37 2.19,69.01 			"/>
			<path class="st1" d="M64.1,87.38c-0.06,0-0.12-0.01-0.18-0.02L7.7,75.22c-0.15-0.03-0.3-0.11-0.41-0.22L1.6,69.64
				c-0.28-0.27-0.36-0.69-0.17-1.04c0.18-0.35,0.57-0.53,0.95-0.45l56.22,12.13c0.15,0.03,0.3,0.11,0.41,0.22l5.69,5.36
				c0.28,0.27,0.36,0.69,0.17,1.04C64.72,87.2,64.42,87.38,64.1,87.38z M8.31,73.57l52.92,11.42l-3.24-3.05L5.07,70.52L8.31,73.57z"
				/>
		</g>
	</g>
	<g>
		<g>
			<polygon class="st0" points="125.68,22.1 131.37,27.46 99.35,51.59 93.66,46.22 			"/>
			<path class="st1" d="M99.35,52.46c-0.22,0-0.43-0.08-0.6-0.24l-5.69-5.36c-0.19-0.18-0.29-0.43-0.27-0.68
				c0.01-0.26,0.14-0.49,0.35-0.65l32.02-24.12c0.34-0.26,0.81-0.23,1.12,0.06l5.69,5.36c0.19,0.18,0.29,0.43,0.27,0.68
				c-0.01,0.26-0.14,0.49-0.35,0.65L99.87,52.28C99.72,52.4,99.53,52.46,99.35,52.46z M95.01,46.3l4.41,4.15l30.61-23.06l-4.41-4.15
				L95.01,46.3z"/>
		</g>
	</g>
	<g>
		<g>
			<polygon class="st0" points="93.13,88.63 98.82,94 85.66,91.16 79.96,85.79 			"/>
			<path class="st1" d="M98.82,94.87c-0.06,0-0.12-0.01-0.18-0.02l-13.16-2.84c-0.15-0.03-0.3-0.11-0.41-0.22l-5.69-5.36
				c-0.28-0.27-0.36-0.69-0.17-1.04c0.18-0.35,0.57-0.53,0.95-0.45l13.16,2.84c0.15,0.03,0.3,0.11,0.41,0.22l5.69,5.36
				c0.28,0.27,0.36,0.69,0.17,1.04C99.44,94.69,99.14,94.87,98.82,94.87z M86.08,90.36l9.87,2.13l-3.24-3.05l-9.87-2.13L86.08,90.36
				z"/>
		</g>
	</g>
	<g>
		<g>
			<polygon class="st0" points="93.66,46.22 99.35,51.59 98.82,94 93.13,88.63 			"/>
			<path class="st1" d="M98.82,94.87c-0.22,0-0.43-0.08-0.6-0.24l-5.69-5.36c-0.18-0.17-0.28-0.4-0.27-0.64l0.53-42.41
				c0-0.35,0.21-0.66,0.53-0.79c0.32-0.13,0.69-0.07,0.94,0.17l5.69,5.36c0.18,0.17,0.28,0.4,0.27,0.64l-0.53,42.41
				c0,0.35-0.21,0.66-0.53,0.79C99.05,94.84,98.93,94.87,98.82,94.87z M94,88.26L97.97,92l0.5-40.05l-3.97-3.74L94,88.26z"/>
		</g>
	</g>
	<g>
		<g>
			<path class="st0" d="M125.68,22.1L93.66,46.22l-0.53,42.41l-13.16-2.84l0.45-29.65L64.93,67.82l-6.52,13.32L2.19,69.01
				l50.74-47.88l-24.71-5.33l6.52-13.32l56.22,12.13L74.69,47.87l37.83-28.61L125.68,22.1z M53.34,65.32l25.84-52.81L28.9,60.05
				L53.34,65.32"/>
			<path class="st1" d="M93.13,89.5c-0.06,0-0.12-0.01-0.18-0.02l-13.16-2.84c-0.41-0.09-0.69-0.45-0.69-0.86l0.43-27.87
				l-13.9,10.49l-6.43,13.13c-0.18,0.36-0.57,0.55-0.97,0.47L2.01,69.86c-0.32-0.07-0.57-0.31-0.65-0.62s0.01-0.65,0.24-0.87
				l49.54-46.75l-23.09-4.98c-0.26-0.06-0.48-0.23-0.6-0.47c-0.12-0.24-0.12-0.52,0-0.76l6.52-13.32c0.18-0.36,0.57-0.55,0.97-0.47
				l56.22,12.13c0.26,0.06,0.48,0.23,0.6,0.47c0.12,0.24,0.12,0.52,0,0.76L77.07,44.98l34.92-26.41c0.2-0.15,0.46-0.21,0.71-0.16
				l13.16,2.84c0.33,0.07,0.59,0.33,0.67,0.66c0.07,0.33-0.05,0.68-0.33,0.88L94.52,46.66L94,88.64c0,0.26-0.12,0.51-0.33,0.67
				C93.51,89.44,93.32,89.5,93.13,89.5z M80.85,85.09l11.42,2.47l0.52-41.35c0-0.27,0.13-0.52,0.35-0.68l30.5-22.98l-10.91-2.35
				L75.21,48.57c-0.32,0.24-0.77,0.23-1.08-0.02c-0.31-0.26-0.41-0.69-0.23-1.05l15.79-32.27l-9.84-2.12L54.12,65.7
				c-0.18,0.36-0.57,0.55-0.97,0.47L28.71,60.9c-0.32-0.07-0.57-0.31-0.65-0.62c-0.09-0.31,0.01-0.64,0.24-0.87l49.47-46.77
				L35.23,3.47L29.5,15.18l23.62,5.1c0.32,0.07,0.57,0.31,0.65,0.62s-0.01,0.64-0.24,0.87L3.99,68.51l53.93,11.64l6.22-12.71
				c0.06-0.12,0.15-0.23,0.26-0.31l15.49-11.68c0.27-0.2,0.62-0.23,0.92-0.08c0.3,0.15,0.48,0.46,0.48,0.79L80.85,85.09z
				 M30.7,59.54l22.16,4.78l23.43-47.89L30.7,59.54z"/>
		</g>
	</g>
</g>
</svg>
